<?xml version="1.0" standalone="no"?>
<!DOCTYPE svg PUBLIC "-//W3C//DTD SVG 20010904//EN"
 "http://www.w3.org/TR/2001/REC-SVG-20010904/DTD/svg10.dtd">
<svg version="1.0" xmlns="http://www.w3.org/2000/svg"
 width="256.000000pt" height="256.000000pt" viewBox="0 0 256.000000 256.000000"
 preserveAspectRatio="xMidYMid meet">

<g transform="translate(0.000000,256.000000) scale(0.100000,-0.100000)"
fill="#000000" stroke="none">
<path d="M160 1520 l0 -1040 80 0 80 0 0 -80 0 -80 -80 0 -80 0 0 -80 0 -80
-80 0 -80 0 0 -80 0 -80 80 0 80 0 0 80 0 80 80 0 80 0 0 80 0 80 960 0 960 0
0 -80 0 -80 80 0 80 0 0 -80 0 -80 80 0 80 0 0 80 0 80 -80 0 -80 0 0 80 0 80
-80 0 -80 0 0 80 0 80 -640 0 -640 0 0 1040 0 1040 -400 0 -400 0 0 -1040z
m640 0 l0 -880 -240 0 -240 0 0 880 0 880 240 0 240 0 0 -880z"/>
<path d="M1440 2480 l0 -80 -80 0 -80 0 0 -80 0 -80 -80 0 -80 0 0 -240 0
-240 80 0 80 0 0 -80 0 -80 80 0 80 0 0 -80 0 -80 240 0 240 0 0 80 0 80 80 0
80 0 0 80 0 80 80 0 80 0 0 240 0 240 -80 0 -80 0 0 80 0 80 -80 0 -80 0 0 80
0 80 -240 0 -240 0 0 -80z m480 -160 l0 -80 80 0 80 0 0 -240 0 -240 -80 0
-80 0 0 -80 0 -80 -240 0 -240 0 0 80 0 80 -80 0 -80 0 0 240 0 240 80 0 80 0
0 80 0 80 240 0 240 0 0 -80z"/>
</g>
</svg>
